<?xml version="1.0" encoding="UTF-8" standalone="no"?>
<!-- Generator: Adobe Illustrator 14.0.0, SVG Export Plug-In . SVG Version: 6.00 Build 43363)  -->

<svg
   xmlns:dc="http://purl.org/dc/elements/1.1/"
   xmlns:cc="http://creativecommons.org/ns#"
   xmlns:rdf="http://www.w3.org/1999/02/22-rdf-syntax-ns#"
   xmlns:svg="http://www.w3.org/2000/svg"
   xmlns="http://www.w3.org/2000/svg"
   xmlns:sodipodi="http://sodipodi.sourceforge.net/DTD/sodipodi-0.dtd"
   xmlns:inkscape="http://www.inkscape.org/namespaces/inkscape"
   version="1.1"
   id="Layer_1"
   x="0px"
   y="0px"
   width="100%"
   height="auto"
   viewBox="0 0 300 300"
   enable-background="new 0 0 300 300"
   xml:space="preserve"
   inkscape:version="0.47 r22583"
   sodipodi:docname="Soft tennis pictogam.svg"><metadata
   id="metadata21"><rdf:RDF><cc:Work
       rdf:about=""><dc:format>image/svg+xml</dc:format><dc:type
         rdf:resource="http://purl.org/dc/dcmitype/StillImage" /></cc:Work></rdf:RDF></metadata><defs
   id="defs19"><inkscape:perspective
   sodipodi:type="inkscape:persp3d"
   inkscape:vp_x="0 : 150 : 1"
   inkscape:vp_y="0 : 1000 : 0"
   inkscape:vp_z="300 : 150 : 1"
   inkscape:persp3d-origin="150 : 100 : 1"
   id="perspective23" />
	
	
	
	
	
	
</defs><sodipodi:namedview
   pagecolor="#ffffff"
   bordercolor="#666666"
   borderopacity="1"
   objecttolerance="10"
   gridtolerance="10"
   guidetolerance="10"
   inkscape:pageopacity="0"
   inkscape:pageshadow="2"
   inkscape:window-width="1280"
   inkscape:window-height="728"
   id="namedview17"
   showgrid="false"
   inkscape:zoom="1.0777486"
   inkscape:cx="177.54361"
   inkscape:cy="163.32842"
   inkscape:window-x="-4"
   inkscape:window-y="-4"
   inkscape:window-maximized="1"
   inkscape:current-layer="Layer_1" />
<g
   id="g3607"><path
     d="m 88.801549,96.256792 c 1.256721,2.87888 2.933239,6.002928 6.505444,6.074728 0.473638,-0.69833 1.417194,-2.09482 1.889433,-2.792818 8.102694,7.827498 17.921534,13.481538 27.559824,19.170998 4.57114,2.2414 9.41547,3.86167 14.10872,5.82355 6.29543,2.30614 13.17567,5.13441 19.94128,3.15289 5.89763,-1.60195 9.18158,-10.54446 3.77251,-14.52924 -6.22998,-4.0335 -14.03586,-3.30209 -21.09053,-4.40928 C 121.03739,105.22467 101.95957,94.662012 87.638603,79.727702 83.86876,73.560712 80.47857,67.066379 77.480327,60.50264 79.410693,58.193515 82.062159,56.334431 83.147357,53.422193 88.924698,40.387375 82.632805,23.606667 69.939589,17.245767 64.890557,14.326052 58.507164,14.208178 53.212932,16.515428 c -5.248273,3.054945 -8.573824,8.827694 -9.557649,14.729156 -1.344801,11.222634 4.16549,23.120091 13.980264,28.889165 4.084772,2.642635 9.148359,3.426403 13.921098,2.795165 2.289693,3.590864 3.46808,7.721275 5.581,11.400458 4.126938,7.17976 7.907226,14.54968 11.663911,21.92738 z M 65.835142,56.869462 C 56.178065,54.592169 49.662918,44.572904 49.630327,34.937237 c -0.240406,-5.169566 2.425712,-10.424583 6.921138,-13.04653 2.840062,-1.039748 6.030731,-0.974391 8.860286,0.07149 11.326083,4.345889 17.088504,19.098864 11.633909,29.961163 -2.446587,3.506525 -6.876322,5.982154 -11.210518,4.946097 z"
     id="path5" /><path
     d="m 217.278,115.819 c 11.825,4.397 25.53,3.576 36.233,10.926 4.412,2.85 7.053,7.908 7.047,13.142 -0.048,11.29 -3.436,22.657 -10.311,31.688 3.767,0.212 5.91,-3.69 8.69,-5.667 11.285,-9.49 16.99,-25.176 13.904,-39.65 -1.299,-6.402 -6.128,-11.251 -11.088,-15.126 -8.774,-6.195 -19.168,-9.641 -29.645,-11.611 -5.996,-0.737 -12.334,-0.499 -17.975,1.836 -2.526,1.049 -5.224,3.548 -4.3,6.545 1.187,3.589 3.746,6.75 7.445,7.917 z"
     id="path7" /><path
     d="m 258.178,237.626 c -9.352,-4.469 -18.881,-10.561 -23.126,-20.457 -4.909,-12.779 -4.068,-26.705 -5.023,-40.12 -0.599,-5.64 -0.978,-11.759 -4.513,-16.468 -4.168,-6.124 -15.336,-6.841 -18.925,0.271 -2.876,5.579 -2.167,12.167 -1.641,18.2 2.598,16.971 8.179,33.479 16.365,48.567 6.018,8.933 16.594,13.158 26.668,15.64 11.378,2.553 22.755,5.123 34.135,7.682 3.17,0.33 7.401,1.84 9.782,-1.065 -11.183,-4.24 -22.996,-6.817 -33.722,-12.25 z"
     id="path9" /><path
     d="m 197.869,158.957 c -4.168,-2.54 -9.429,-1.803 -13.824,-0.289 -11.773,4.804 -21.485,13.224 -31.364,21.003 -29.333,23.355 -58.805,46.544 -88.071,69.979 -1.911,1.415 -4.009,2.544 -6.128,3.613 0.46,0.369 0.921,0.742 1.383,1.119 6.338,-2.177 12.528,-4.807 18.349,-8.14 33.863,-18.839 68.132,-36.942 101.78,-56.166 5.938,-3.345 12.024,-6.515 17.455,-10.665 3.836,-3.001 6.907,-8.162 5.263,-13.119 -1.062,-2.716 -2.123,-5.846 -4.843,-7.335 z"
     id="path11" /><path
     sodipodi:nodetypes="csssccsssc"
     d="m 41.966962,64.444219 c -2.904344,0 -5.258447,2.354103 -5.258447,5.258447 0,2.904344 2.354103,5.258447 5.258447,5.258447 2.904344,0 5.258447,-2.354103 5.258447,-5.258447 0,-2.904344 -2.354103,-5.258447 -5.258447,-5.258447 z m 0,8.188023 c -0.972967,0 -2.929359,-1.956609 -2.929359,-2.929576 0,-0.972967 1.956392,-2.929187 2.929359,-2.929187 0.973549,0 2.929404,1.95622 2.929404,2.929187 0,0.972967 -1.956437,2.929576 -2.929404,2.929576 z"
     id="path13" /><circle
     cx="170.44901"
     cy="74.676003"
     r="21.698999"
     id="circle15"
     sodipodi:cx="170.44901"
     sodipodi:cy="74.676003"
     sodipodi:rx="21.698999"
     sodipodi:ry="21.698999" /></g>
</svg>